<svg id="Layer_1" data-name="Layer 1" xmlns="http://www.w3.org/2000/svg" viewBox="0 0 841.36 100.57"><title>Bidgala_full_black</title><path d="M119.73,491.06h47.74c17.75,0,27.65,11.06,27.64,24.74,0,12.23-7.86,20.38-16.88,22.27C188.56,539.68,197,550,197,562c0,15-10.05,26.19-28.24,26.19h-49ZM164,531.23c8.73,0,13.68-5.23,13.68-12.51s-5-12.66-13.68-12.66H136.75v25.18Zm.72,41.92c9.31,0,14.84-5.09,14.84-13.53,0-7.28-5.09-13.39-14.84-13.4H136.75v26.93Z" transform="translate(-119.71 -489.53)"/><path d="M253.78,491.08h17v97.08h-17Z" transform="translate(-119.71 -489.53)"/><path d="M331.2,491.1h36.1c30.27,0,50.79,20.09,50.78,48.62s-20.53,48.46-50.8,48.46H331.19Zm36.08,82.09c21.11,0,33.33-15.13,33.34-33.47,0-18.78-11.64-33.62-33.33-33.63H348.23v67.09Z" transform="translate(-119.71 -489.53)"/><path d="M520.85,489.53c18.92,0,31.29,9,39.14,20.24l-14,7.85a30.92,30.92,0,0,0-25.18-13c-19.21,0-33.47,14.7-33.48,35.07S501.62,575,520.83,575a35.64,35.64,0,0,0,23-8.73V551.1h-29v-15h46v36.38a52.66,52.66,0,0,1-40,17.61c-28.09,0-50.94-20-50.93-50.37S492.76,489.52,520.85,489.53Z" transform="translate(-119.71 -489.53)"/><path d="M755.32,491.17h17v82.09h42.78v15H755.3Z" transform="translate(-119.71 -489.53)"/><path d="M682.53,569.88h-48.9l-7.58,18.69H606.24l45.48-97.41h9.7l48.5,97.42H690.11Zm-43.79-15h38.69l-19.25-41Z" transform="translate(-119.71 -489.53)"/><path d="M933.68,568.79h-48.9l-7.58,18.7H857.39l45.48-97.4h9.7l48.5,97.42H941.26Zm-43.79-15h38.69l-19.24-41Z" transform="translate(-119.71 -489.53)"/></svg>